<svg width="128" height="39" viewBox="0 0 128 39" fill="none" xmlns="http://www.w3.org/2000/svg">
<path d="M26.8132 19.879C26.8257 18.9044 27.0846 17.9488 27.5657 17.1011C28.0468 16.2535 28.7345 15.5413 29.5648 15.0308C29.0373 14.2775 28.3415 13.6576 27.5325 13.2202C26.7235 12.7829 25.8237 12.5402 24.9045 12.5114C22.9438 12.3056 21.0429 13.6847 20.0438 13.6847C19.0253 13.6847 17.4869 12.5319 15.8303 12.5659C14.7588 12.6006 13.7145 12.9121 12.7992 13.4703C11.8839 14.0286 11.1288 14.8143 10.6075 15.7511C8.34929 19.6609 10.0337 25.4069 12.1969 28.5673C13.2792 30.1148 14.5441 31.8435 16.1992 31.7822C17.8188 31.715 18.4237 30.7494 20.3786 30.7494C22.3155 30.7494 22.883 31.7822 24.5717 31.7432C26.3096 31.715 27.4045 30.1888 28.4488 28.6266C29.2265 27.5239 29.8249 26.3052 30.2218 25.0156C29.2121 24.5886 28.3505 23.8738 27.7444 22.9603C27.1382 22.0469 26.8144 20.9752 26.8132 19.879Z" fill="white"/>
<path d="M23.6233 10.433C24.5709 9.29546 25.0378 7.83335 24.9247 6.35718C23.477 6.50923 22.1398 7.20113 21.1794 8.29501C20.7098 8.82941 20.3502 9.4511 20.1211 10.1246C19.8919 10.798 19.7977 11.5101 19.8439 12.2199C20.5681 12.2274 21.2844 12.0704 21.9391 11.7609C22.5937 11.4514 23.1696 10.9973 23.6233 10.433Z" fill="white"/>
<path d="M47.9359 25.3377H43.0198L41.8391 28.7441H39.7568L44.4134 16.1415H46.5768L51.2333 28.7441H49.1155L47.9359 25.3377ZM43.5289 23.7659H47.4258L45.5048 18.2376H45.451L43.5289 23.7659Z" fill="white"/>
<path d="M61.2898 24.1505C61.2898 27.0058 59.7258 28.8403 57.3656 28.8403C56.7677 28.8708 56.1731 28.7363 55.6498 28.452C55.1266 28.1676 54.6959 27.7451 54.407 27.2327H54.3623V31.7838H52.4321V19.5558H54.3005V21.0841H54.336C54.6381 20.5741 55.0762 20.1538 55.6034 19.8678C56.1306 19.5817 56.7273 19.4407 57.3301 19.4597C59.7166 19.4597 61.2898 21.3031 61.2898 24.1505ZM59.3059 24.1505C59.3059 22.2902 58.322 21.0672 56.8209 21.0672C55.3462 21.0672 54.3542 22.316 54.3542 24.1505C54.3542 26.0018 55.3462 27.2417 56.8209 27.2417C58.322 27.2417 59.3059 26.0276 59.3059 24.1505Z" fill="white"/>
<path d="M71.6394 24.1505C71.6394 27.0058 70.0754 28.8403 67.7152 28.8403C67.1173 28.8708 66.5227 28.7362 65.9995 28.4519C65.4762 28.1676 65.0455 27.7451 64.7566 27.2327H64.7119V31.7838H62.7817V19.5558H64.65V21.0841H64.6855C64.9877 20.5741 65.4257 20.1538 65.953 19.8678C66.4802 19.5817 67.0769 19.4407 67.6797 19.4597C70.0663 19.4597 71.6394 21.3031 71.6394 24.1505ZM69.6555 24.1505C69.6555 22.2902 68.6716 21.0672 67.1705 21.0672C65.6958 21.0672 64.7038 22.316 64.7038 24.1505C64.7038 26.0018 65.6958 27.2417 67.1705 27.2417C68.6716 27.2417 69.6555 26.0276 69.6555 24.1505H69.6555Z" fill="white"/>
<path d="M78.4797 25.2327C78.6228 26.4825 79.8653 27.303 81.5631 27.303C83.19 27.303 84.3605 26.4824 84.3605 25.3556C84.3605 24.3774 83.6546 23.7917 81.983 23.3903L80.3115 22.9968C77.9432 22.4378 76.8437 21.3556 76.8437 19.5994C76.8437 17.425 78.783 15.9314 81.5368 15.9314C84.2621 15.9314 86.1304 17.425 86.1933 19.5994H84.2448C84.1282 18.3417 83.0642 17.5825 81.5093 17.5825C79.9545 17.5825 78.8905 18.3506 78.8905 19.4686C78.8905 20.3595 79.5701 20.8838 81.2325 21.2852L82.6534 21.6261C85.2997 22.2376 86.3992 23.2763 86.3992 25.1197C86.3992 27.4774 84.4771 28.9541 81.4201 28.9541C78.5598 28.9541 76.6287 27.5121 76.5039 25.2326L78.4797 25.2327Z" fill="white"/>
<path d="M90.5648 17.3813V19.5558H92.353V21.0493H90.5648V26.1147C90.5648 26.9016 90.9229 27.2684 91.7089 27.2684C91.9212 27.2647 92.1331 27.2502 92.3439 27.2247V28.7093C91.9904 28.7739 91.6312 28.8031 91.2718 28.7966C89.368 28.7966 88.6255 28.0979 88.6255 26.3159V21.0493H87.2583V19.5558H88.6255V17.3813H90.5648Z" fill="white"/>
<path d="M93.3882 24.1505C93.3882 21.2595 95.1307 19.4429 97.8479 19.4429C100.574 19.4429 102.309 21.2595 102.309 24.1505C102.309 27.0494 100.583 28.8581 97.8479 28.8581C95.1134 28.8581 93.3882 27.0494 93.3882 24.1505ZM100.342 24.1505C100.342 22.1673 99.4119 20.9969 97.8479 20.9969C96.2839 20.9969 95.3548 22.1763 95.3548 24.1505C95.3548 26.1416 96.2839 27.3031 97.8479 27.3031C99.4119 27.3031 100.342 26.1416 100.342 24.1505H100.342Z" fill="white"/>
<path d="M103.9 19.5559H105.741V21.1198H105.785C105.91 20.6313 106.203 20.1997 106.615 19.8974C107.027 19.5951 107.533 19.4405 108.047 19.4597C108.27 19.459 108.492 19.4826 108.709 19.5301V21.2942C108.428 21.2104 108.135 21.1719 107.841 21.1802C107.561 21.1691 107.281 21.2174 107.022 21.3219C106.762 21.4263 106.529 21.5843 106.338 21.7852C106.147 21.986 106.003 22.2248 105.915 22.4853C105.827 22.7458 105.798 23.0218 105.83 23.2942V28.7442H103.9L103.9 19.5559Z" fill="white"/>
<path d="M117.608 26.0454C117.349 27.7134 115.686 28.8581 113.559 28.8581C110.824 28.8581 109.126 27.0672 109.126 24.1941C109.126 21.312 110.833 19.4429 113.478 19.4429C116.08 19.4429 117.716 21.1891 117.716 23.9751V24.6213H111.074V24.7352C111.044 25.0734 111.087 25.414 111.202 25.7346C111.316 26.0551 111.499 26.3482 111.738 26.5943C111.977 26.8405 112.267 27.0341 112.589 27.1623C112.911 27.2905 113.257 27.3503 113.604 27.3378C114.06 27.3796 114.518 27.2763 114.909 27.0435C115.3 26.8106 115.604 26.4606 115.776 26.0454L117.608 26.0454ZM111.084 23.3031H115.785C115.802 22.9991 115.755 22.6948 115.646 22.4094C115.537 22.124 115.369 21.8637 115.153 21.6447C114.936 21.4257 114.676 21.2529 114.388 21.1369C114.099 21.021 113.79 20.9646 113.478 20.9711C113.164 20.9693 112.852 21.0283 112.561 21.1447C112.271 21.2612 112.006 21.4328 111.784 21.6496C111.561 21.8664 111.384 22.1241 111.264 22.4079C111.144 22.6917 111.083 22.996 111.084 23.3031V23.3031Z" fill="white"/>
<path d="M43.2868 6.65555C43.6915 6.62718 44.0976 6.68691 44.4757 6.83045C44.8539 6.97398 45.1948 7.19774 45.4737 7.48558C45.7527 7.77342 45.9628 8.11817 46.0889 8.49496C46.215 8.87175 46.2539 9.27119 46.2029 9.66446C46.2029 11.5991 45.1328 12.7111 43.2868 12.7111H41.0483V6.65555H43.2868ZM42.0109 11.8547H43.1793C43.4685 11.8716 43.7578 11.8253 44.0264 11.7191C44.2949 11.6129 44.5358 11.4496 44.7316 11.241C44.9274 11.0323 45.0731 10.7837 45.1581 10.5131C45.2431 10.2425 45.2653 9.95683 45.2231 9.67681C45.2622 9.39789 45.2378 9.11396 45.1515 8.84536C45.0651 8.57676 44.9191 8.33014 44.7237 8.12318C44.5284 7.91622 44.2887 7.75404 44.0216 7.64825C43.7546 7.54247 43.467 7.4957 43.1793 7.5113H42.0109V11.8547Z" fill="white"/>
<path d="M47.2902 10.4241C47.2608 10.1238 47.296 9.82076 47.3934 9.5345C47.4909 9.24824 47.6485 8.98504 47.8562 8.76179C48.0638 8.53854 48.317 8.36016 48.5993 8.2381C48.8817 8.11603 49.187 8.05298 49.4958 8.05298C49.8045 8.05298 50.1098 8.11603 50.3922 8.2381C50.6745 8.36016 50.9277 8.53854 51.1353 8.76179C51.343 8.98504 51.5006 9.24824 51.5981 9.5345C51.6955 9.82076 51.7307 10.1238 51.7013 10.4241C51.7312 10.7247 51.6965 11.0281 51.5993 11.3149C51.5021 11.6016 51.3446 11.8653 51.1369 12.089C50.9291 12.3126 50.6758 12.4914 50.3932 12.6137C50.1106 12.7361 49.8049 12.7992 49.4958 12.7992C49.1866 12.7992 48.8809 12.7361 48.5983 12.6137C48.3157 12.4914 48.0624 12.3126 47.8546 12.089C47.6469 11.8653 47.4894 11.6016 47.3922 11.3149C47.295 11.0281 47.2603 10.7247 47.2902 10.4241ZM50.7519 10.4241C50.7519 9.43351 50.2965 8.85422 49.4973 8.85422C48.695 8.85422 48.2437 9.43351 48.2437 10.4241C48.2437 11.4226 48.695 11.9974 49.4973 11.9974C50.2965 11.9974 50.7519 11.4186 50.7519 10.4241H50.7519Z" fill="white"/>
<path d="M57.5648 12.711H56.6073L55.6407 9.34527H55.5677L54.6052 12.711H53.6568L52.3677 8.14111H53.3039L54.1416 11.6282H54.2106L55.1721 8.14111H56.0576L57.0191 11.6282H57.0922L57.9259 8.14111H58.8489L57.5648 12.711Z" fill="white"/>
<path d="M59.9331 8.14105H60.8216V8.86701H60.8906C61.0076 8.60627 61.2049 8.3877 61.4551 8.24176C61.7053 8.09581 61.9958 8.02977 62.2862 8.05284C62.5138 8.03612 62.7423 8.06965 62.9548 8.15093C63.1673 8.23222 63.3583 8.35918 63.5138 8.52242C63.6693 8.68565 63.7851 8.88098 63.8529 9.09391C63.9206 9.30685 63.9384 9.53195 63.905 9.75253V12.7109H62.982V9.97901C62.982 9.24462 62.6554 8.87941 61.9728 8.87941C61.8183 8.87237 61.6641 8.89807 61.5207 8.95473C61.3773 9.01139 61.2481 9.09767 61.1421 9.20767C61.036 9.31767 60.9555 9.44877 60.9062 9.592C60.8568 9.73523 60.8397 9.88719 60.8561 10.0375V12.7109H59.9331L59.9331 8.14105Z" fill="white"/>
<path d="M65.3755 6.35718H66.2985V12.711H65.3755V6.35718Z" fill="white"/>
<path d="M67.5817 10.424C67.5523 10.1237 67.5875 9.82069 67.685 9.53442C67.7825 9.24814 67.9401 8.98494 68.1478 8.76168C68.3555 8.53842 68.6086 8.36004 68.891 8.23798C69.1734 8.11591 69.4787 8.05286 69.7875 8.05286C70.0963 8.05286 70.4016 8.11591 70.684 8.23798C70.9664 8.36004 71.2195 8.53842 71.4272 8.76168C71.6349 8.98494 71.7925 9.24814 71.89 9.53442C71.9875 9.82069 72.0227 10.1237 71.9933 10.424C72.0232 10.7247 71.9884 11.0281 71.8912 11.3148C71.794 11.6016 71.6364 11.8652 71.4287 12.0889C71.2209 12.3126 70.9676 12.4914 70.685 12.6137C70.4023 12.736 70.0966 12.7992 69.7875 12.7992C69.4784 12.7992 69.1727 12.736 68.89 12.6137C68.6074 12.4914 68.354 12.3126 68.1463 12.0889C67.9386 11.8652 67.781 11.6016 67.6838 11.3148C67.5865 11.0281 67.5518 10.7247 67.5817 10.424ZM71.0434 10.424C71.0434 9.43347 70.588 8.85419 69.7888 8.85419C68.9865 8.85419 68.5351 9.43347 68.5351 10.4241C68.5351 11.4226 68.9865 11.9974 69.7888 11.9974C70.588 11.9974 71.0434 11.4186 71.0434 10.424H71.0434Z" fill="white"/>
<path d="M72.9648 11.4186C72.9648 10.596 73.5917 10.1217 74.7043 10.0543L75.9711 9.98298V9.58853C75.9711 9.10587 75.6445 8.83333 75.0137 8.83333C74.4984 8.83333 74.1414 9.01817 74.039 9.34126H73.1454C73.2397 8.55632 73.9953 8.05286 75.0563 8.05286C76.2288 8.05286 76.8901 8.62321 76.8901 9.58853V12.7109H76.0016V12.0687H75.9285C75.7803 12.2991 75.5722 12.4869 75.3254 12.6129C75.0786 12.739 74.802 12.7988 74.5238 12.7862C74.3274 12.8062 74.129 12.7857 73.9413 12.7261C73.7535 12.6666 73.5806 12.5692 73.4338 12.4404C73.2869 12.3115 73.1693 12.154 73.0885 11.978C73.0077 11.802 72.9656 11.6114 72.9648 11.4186ZM75.9711 11.0281V10.646L74.8291 10.7174C74.185 10.7595 73.8929 10.9736 73.8929 11.3764C73.8929 11.7877 74.258 12.0271 74.7601 12.0271C74.9073 12.0416 75.0559 12.0271 75.1971 11.9844C75.3384 11.9417 75.4694 11.8716 75.5824 11.7784C75.6954 11.6852 75.788 11.5708 75.8548 11.4418C75.9216 11.3129 75.9612 11.1722 75.9711 11.0281Z" fill="white"/>
<path d="M78.103 10.4241C78.103 8.98008 78.8627 8.06532 80.0443 8.06532C80.3366 8.05216 80.6267 8.12056 80.8807 8.26254C81.1346 8.40451 81.342 8.61419 81.4785 8.86706H81.5475V6.35718H82.4705V12.711H81.586V11.989H81.513C81.3659 12.2401 81.1514 12.4472 80.8925 12.5878C80.6336 12.7283 80.3403 12.797 80.0444 12.7863C78.8546 12.7863 78.103 11.8716 78.103 10.4241ZM79.0565 10.4241C79.0565 11.3934 79.5241 11.9766 80.3061 11.9766C81.084 11.9766 81.5648 11.3849 81.5648 10.4281C81.5648 9.47562 81.0789 8.87552 80.3061 8.87552C79.5291 8.87552 79.0564 9.46273 79.0564 10.4241H79.0565Z" fill="white"/>
<path d="M86.2892 10.4241C86.2598 10.1238 86.295 9.82076 86.3925 9.5345C86.4899 9.24824 86.6475 8.98504 86.8552 8.76179C87.0629 8.53854 87.316 8.36016 87.5983 8.2381C87.8807 8.11603 88.186 8.05298 88.4948 8.05298C88.8035 8.05298 89.1089 8.11603 89.3912 8.2381C89.6736 8.36016 89.9267 8.53854 90.1343 8.76179C90.342 8.98504 90.4996 9.24824 90.5971 9.5345C90.6946 9.82076 90.7297 10.1238 90.7003 10.4241C90.7303 10.7247 90.6955 11.0281 90.5983 11.3149C90.5011 11.6016 90.3436 11.8653 90.1359 12.089C89.9282 12.3126 89.6748 12.4914 89.3922 12.6137C89.1096 12.7361 88.8039 12.7992 88.4948 12.7992C88.1857 12.7992 87.88 12.7361 87.5973 12.6137C87.3147 12.4914 87.0614 12.3126 86.8537 12.089C86.646 11.8653 86.4884 11.6016 86.3912 11.3149C86.294 11.0281 86.2593 10.7247 86.2892 10.4241ZM89.7509 10.4241C89.7509 9.43351 89.2955 8.85422 88.4963 8.85422C87.694 8.85422 87.2427 9.43351 87.2427 10.4241C87.2427 11.4226 87.694 11.9974 88.4963 11.9974C89.2955 11.9974 89.7509 11.4186 89.7509 10.4241Z" fill="white"/>
<path d="M91.939 8.14105H92.8275V8.86701H92.8964C93.0135 8.60627 93.2108 8.3877 93.461 8.24176C93.7111 8.09581 94.0017 8.02977 94.2921 8.05284C94.5196 8.03612 94.7481 8.06965 94.9606 8.15093C95.1731 8.23222 95.3642 8.35918 95.5197 8.52242C95.6751 8.68565 95.791 8.88098 95.8587 9.09391C95.9264 9.30685 95.9443 9.53195 95.9109 9.75253V12.7109H94.9879V9.97901C94.9879 9.24462 94.6613 8.87941 93.9787 8.87941C93.8242 8.87237 93.6699 8.89807 93.5265 8.95473C93.3832 9.01139 93.254 9.09767 93.1479 9.20767C93.0419 9.31767 92.9614 9.44877 92.912 9.592C92.8627 9.73523 92.8456 9.88719 92.862 10.0375V12.7109H91.939V8.14105Z" fill="white"/>
<path d="M101.126 7.0033V8.16187H102.139V8.92153H101.126V11.2714C101.126 11.7501 101.328 11.9597 101.787 11.9597C101.905 11.9593 102.022 11.9524 102.139 11.9389V12.6901C101.973 12.7191 101.805 12.7345 101.637 12.7362C100.611 12.7362 100.202 12.3834 100.202 11.5023V8.92149H99.4595V8.16182H100.202V7.0033H101.126Z" fill="white"/>
<path d="M103.4 6.35718H104.315V8.87551H104.388C104.511 8.61234 104.714 8.39253 104.969 8.24603C105.224 8.09954 105.519 8.03349 105.814 8.05688C106.041 8.04485 106.267 8.08178 106.477 8.16504C106.687 8.2483 106.876 8.37584 107.03 8.53856C107.184 8.70128 107.299 8.89517 107.367 9.1064C107.435 9.31763 107.455 9.54099 107.425 9.76055V12.711H106.501V9.98304C106.501 9.2531 106.153 8.88343 105.501 8.88343C105.342 8.87072 105.183 8.89203 105.033 8.94587C104.884 8.99971 104.749 9.08478 104.636 9.19514C104.524 9.30549 104.438 9.43846 104.384 9.58474C104.33 9.73102 104.309 9.88708 104.323 10.042V12.711H103.4L103.4 6.35718Z" fill="white"/>
<path d="M112.806 11.4771C112.681 11.8948 112.409 12.256 112.039 12.4977C111.668 12.7394 111.223 12.8461 110.78 12.7992C110.472 12.8071 110.166 12.7495 109.883 12.6302C109.6 12.5109 109.347 12.3329 109.141 12.1085C108.935 11.8841 108.782 11.6186 108.692 11.3306C108.602 11.0425 108.577 10.7388 108.62 10.4404C108.579 10.1412 108.604 9.83678 108.694 9.54788C108.783 9.25898 108.936 8.9923 109.14 8.76591C109.345 8.53952 109.597 8.3587 109.879 8.23569C110.161 8.11268 110.467 8.05036 110.776 8.05293C112.077 8.05293 112.862 8.92166 112.862 10.3567V10.6714H109.56V10.7219C109.545 10.8896 109.567 11.0584 109.623 11.2175C109.679 11.3766 109.769 11.5224 109.886 11.6457C110.003 11.7689 110.146 11.8669 110.304 11.9333C110.462 11.9996 110.633 12.033 110.805 12.0311C111.026 12.057 111.25 12.0181 111.448 11.9195C111.646 11.8208 111.81 11.6668 111.918 11.4771L112.806 11.4771ZM109.56 10.0044H111.922C111.934 9.85099 111.912 9.69694 111.859 9.5521C111.806 9.40726 111.723 9.27484 111.615 9.16335C111.506 9.05186 111.375 8.96376 111.23 8.90472C111.085 8.84568 110.928 8.817 110.771 8.82053C110.611 8.81857 110.453 8.84785 110.305 8.90666C110.157 8.96546 110.023 9.0526 109.91 9.16293C109.797 9.27326 109.708 9.40455 109.648 9.54906C109.588 9.69357 109.558 9.84838 109.56 10.0044H109.56Z" fill="white"/>
<rect x="0.397291" y="0.397779" width="126.456" height="37.3454" rx="3.57562" stroke="white" stroke-width="0.794582"/>
</svg>
