<svg width="9" height="5" viewBox="0 0 9 5" fill="none" xmlns="http://www.w3.org/2000/svg">
<path d="M8.00724 0.414398C8.08153 0.48843 8.14048 0.576399 8.1807 0.673261C8.22092 0.770123 8.24162 0.873971 8.24162 0.978851C8.24162 1.08373 8.22092 1.18758 8.1807 1.28444C8.14048 1.3813 8.08153 1.46927 8.00724 1.5433L4.81974 4.7308C4.74571 4.80509 4.65774 4.86404 4.56088 4.90426C4.46402 4.94448 4.36017 4.96518 4.25529 4.96518C4.15041 4.96518 4.04656 4.94448 3.9497 4.90426C3.85284 4.86404 3.76487 4.80509 3.69084 4.7308L0.503335 1.5433C0.353633 1.3936 0.269531 1.19056 0.269531 0.978851C0.269531 0.76714 0.353633 0.5641 0.503335 0.414398C0.653038 0.264695 0.856077 0.180594 1.06779 0.180594C1.2795 0.180594 1.48254 0.264695 1.63224 0.414398L4.25595 3.03678L6.87966 0.412405C6.9538 0.338445 7.04179 0.279824 7.1386 0.239893C7.23541 0.199961 7.33914 0.179504 7.44387 0.179689C7.54859 0.179874 7.65225 0.200698 7.74891 0.240971C7.84558 0.281244 7.93336 0.340176 8.00724 0.414398Z" fill="white"/>
</svg>
