<svg width="46" height="33" viewBox="0 0 46 33" fill="none" xmlns="http://www.w3.org/2000/svg">
<path d="M10.9433 13.0513H17.2313C22.9004 13.0513 26.5165 16.4539 26.5165 21.7649C26.5165 27.6481 22.5095 30.51 16.1237 30.51H10.9433V13.0513ZM16.8419 17.0558C16.6137 17.0558 16.3206 17.0873 15.9297 17.0873V26.5005C19.1223 26.5005 21.5985 25.2602 21.5985 21.6668C21.5985 18.5822 19.5784 17.0558 16.8419 17.0558ZM46 18.1341V13.5227C44.7293 13.0139 43.5887 12.7276 41.9925 12.7276C36.747 12.7276 32.5441 16.6073 32.5441 21.7273C32.5441 26.8472 36.6816 30.6 41.8949 30.6C43.752 30.6 45.0222 30.2179 45.9998 29.4867V24.8757C44.5336 25.7658 43.5238 26.1474 42.155 26.1474C39.5163 26.1474 37.4638 24.2717 37.4638 21.5046C37.4638 18.8013 39.5488 16.8298 42.155 16.8298C43.5887 16.83 44.6312 17.3071 46 18.1341ZM0 9.55081V10.3776H3.48624V9.55081C2.47619 9.51913 2.31318 9.3917 2.31318 8.72404V4.55803L4.39819 10.3776H5.27792L7.52595 4.55803V8.62852C7.52595 9.48697 7.52595 9.48697 6.28797 9.55057V10.3773H10.3282V9.55057C9.1551 9.55057 9.12265 9.42338 9.12265 8.81932V4.74906C9.12265 4.08116 9.22026 3.85845 10.3282 3.85845V3H6.87463L5.11515 7.6748L3.48624 3H0V3.85845C0.977593 3.85845 1.14036 3.85845 1.14036 4.68522V8.59685C1.14036 9.36002 1.14036 9.55081 0 9.55081ZM16.9045 9.55081V10.3776H20.1299V9.55081C19.348 9.51913 19.348 9.42362 19.348 8.37413V7.48376C19.348 6.62507 19.739 5.9255 20.5533 5.9255C21.2049 5.9255 21.4003 6.339 21.4003 6.91138V8.78764C21.4003 9.42362 21.3679 9.55081 20.586 9.55081V10.3776H23.4854V9.55081C22.8013 9.55081 22.7362 9.48721 22.7362 8.85124V7.54736C22.7362 6.65699 23.1598 5.89382 24.0069 5.89382C24.6584 5.89382 24.7887 6.27541 24.7887 7.03858V8.94675C24.7887 9.48721 24.7887 9.55105 24.0069 9.55105V10.3778H27.1998V9.55105C26.2219 9.55105 26.1573 9.58273 26.1573 9.04227V6.91162C26.1573 5.70303 25.8639 5.00345 24.5933 5.00345C23.8441 5.00345 23.3553 5.28952 22.7362 5.92574C22.4104 5.35336 21.9543 4.97177 21.1724 4.97177C20.3578 4.97177 19.8039 5.38504 19.348 5.98934V5.13065H16.9045V5.89406C17.8819 5.89406 17.9798 5.92574 17.9798 6.68915V8.43797C17.9798 9.55081 17.9798 9.55081 16.9045 9.55081ZM0.156621 13.0513V30.51H5.07606L5.10876 23.832H9.89813V19.7934H5.14146L5.10876 17.0901H10.2564V13.0513H0.156621ZM27.5902 3.00192H29.8707V5.70519C30.4898 5.1964 30.8805 5.00561 31.4996 5.00561C32.803 5.00561 33.6827 6.15037 33.6827 7.74056C33.6827 9.4577 32.803 10.5708 31.3041 10.5708C30.5877 10.5708 30.1313 10.3481 29.6425 9.83928L29.1864 10.4436H28.5027V4.7193C28.5027 3.86061 28.4372 3.76533 27.5902 3.76533V3.00192ZM32.1529 7.73768C32.1529 6.52932 31.6968 5.92502 31.045 5.92502C30.198 5.92502 29.8397 6.59292 29.8397 7.83319C29.8397 8.91435 30.2634 9.64585 31.0125 9.64585C31.6311 9.64585 32.1529 9.07347 32.1529 7.73768ZM40.6215 9.55081V10.3776H44.1402V9.55081C43.1629 9.55081 43.0655 9.58249 43.0655 8.81956V7.67456C43.0655 6.62507 43.4237 5.67111 44.4011 5.67111C44.4665 5.67111 44.5316 5.67111 44.7271 5.7347C44.4011 5.89382 44.1729 6.11629 44.1729 6.4662C44.1729 6.8797 44.4989 7.16578 44.9226 7.16578C45.4436 7.16578 45.8018 6.78419 45.8018 6.21157C45.8018 5.51199 45.2808 5.00321 44.5639 5.00321C43.9774 5.00321 43.5541 5.28928 43.0328 5.8619V5.13041H40.6215V5.89382C41.4685 5.89382 41.6967 5.89382 41.6967 6.59339V8.75572C41.6967 9.48721 41.6967 9.55081 40.6215 9.55081ZM36.1909 7.89967C36.1909 8.91723 36.6797 9.61681 37.5594 9.61681C38.3413 9.61681 38.6995 9.17163 38.8301 8.47205H39.8074C39.6447 9.8076 38.7322 10.5391 37.4288 10.5391C35.8653 10.5391 34.692 9.61681 34.692 7.83607C34.692 6.21421 35.7345 5.00585 37.2988 5.00585C38.8303 5.00585 39.8074 6.15061 39.8074 7.89967H36.1909ZM37.2988 5.8283C36.6472 5.8283 36.2563 6.27349 36.2563 7.06858H38.3088C38.3088 6.24181 37.983 5.8283 37.2988 5.8283ZM12.4742 7.89967C12.4742 8.91723 12.9954 9.61681 13.8751 9.61681C14.657 9.61681 15.0153 9.17163 15.1456 8.47205H16.0905C15.9274 9.8076 15.048 10.5391 13.7446 10.5391C12.1808 10.5391 10.9753 9.61681 10.9753 7.83607C10.9753 6.21421 12.0505 5.00585 13.6143 5.00585C15.1456 5.00585 16.0905 6.15061 16.0905 7.89967H12.4742ZM13.6143 5.8283C12.9627 5.8283 12.5718 6.27349 12.5718 7.06858H14.5919C14.5916 6.20989 14.2658 5.8283 13.6143 5.8283ZM27.038 30.51H31.9579V13.0513H27.038V30.51Z" fill="white"/>
</svg>
