<svg width="27" height="26" viewBox="0 0 27 26" fill="none" xmlns="http://www.w3.org/2000/svg">
<path d="M19.1543 0H7.1543C5.29839 0.00198528 3.51907 0.740121 2.20674 2.05245C0.894418 3.36477 0.156282 5.14409 0.154297 7V19C0.156282 20.8559 0.894418 22.6352 2.20674 23.9476C3.51907 25.2599 5.29839 25.998 7.1543 26H19.1543C21.0102 25.998 22.7895 25.2599 24.1019 23.9476C25.4142 22.6352 26.1523 20.8559 26.1543 19V7C26.1523 5.14409 25.4142 3.36477 24.1019 2.05245C22.7895 0.740121 21.0102 0.00198528 19.1543 0ZM13.1543 19C11.9676 19 10.8076 18.6481 9.82088 17.9888C8.83418 17.3295 8.06515 16.3925 7.61102 15.2961C7.15689 14.1997 7.03807 12.9933 7.26959 11.8295C7.5011 10.6656 8.07254 9.59647 8.91166 8.75736C9.75077 7.91824 10.8199 7.3468 11.9838 7.11529C13.1476 6.88378 14.354 7.0026 15.4504 7.45672C16.5468 7.91085 17.4838 8.67988 18.1431 9.66658C18.8024 10.6533 19.1543 11.8133 19.1543 13C19.1526 14.5908 18.52 16.116 17.3951 17.2408C16.2703 18.3657 14.7451 18.9983 13.1543 19ZM20.6543 7C20.3576 7 20.0676 6.91203 19.8209 6.7472C19.5743 6.58238 19.382 6.34811 19.2685 6.07403C19.1549 5.79994 19.1252 5.49834 19.1831 5.20736C19.241 4.91639 19.3839 4.64912 19.5936 4.43934C19.8034 4.22956 20.0707 4.0867 20.3617 4.02882C20.6526 3.97094 20.9542 4.00065 21.2283 4.11418C21.5024 4.22771 21.7367 4.41997 21.9015 4.66664C22.0663 4.91332 22.1543 5.20333 22.1543 5.5C22.1543 5.89782 21.9963 6.27936 21.715 6.56066C21.4337 6.84196 21.0521 7 20.6543 7ZM17.1543 13C17.1543 13.7911 16.9197 14.5645 16.4802 15.2223C16.0406 15.8801 15.4159 16.3928 14.685 16.6955C13.9541 16.9983 13.1499 17.0775 12.3739 16.9231C11.598 16.7688 10.8853 16.3878 10.3259 15.8284C9.76646 15.269 9.3855 14.5563 9.23116 13.7804C9.07681 13.0044 9.15603 12.2002 9.45878 11.4693C9.76153 10.7384 10.2742 10.1136 10.932 9.67412C11.5898 9.2346 12.3632 9 13.1543 9C14.2152 9 15.2326 9.42143 15.9827 10.1716C16.7329 10.9217 17.1543 11.9391 17.1543 13Z" fill="white"/>
</svg>
