<svg width="20" height="9" viewBox="0 0 20 9" fill="none" xmlns="http://www.w3.org/2000/svg">
<path d="M18.9193 3.60305C19.0418 3.72365 19.1107 3.88713 19.1107 4.05758C19.1107 4.22803 19.0418 4.39151 18.9193 4.51211L15.4288 7.94253C15.3048 8.05614 15.1407 8.11799 14.9711 8.11505C14.8016 8.11211 14.6398 8.04461 14.5199 7.92676C14.4 7.80892 14.3313 7.64993 14.3283 7.4833C14.3253 7.31666 14.3883 7.1554 14.5039 7.03346L16.8763 4.70078H1.00456C0.830983 4.70078 0.664519 4.63302 0.541784 4.51239C0.419049 4.39177 0.350098 4.22817 0.350098 4.05758C0.350098 3.88699 0.419049 3.72339 0.541784 3.60276C0.664519 3.48214 0.830983 3.41437 1.00456 3.41437H16.8763L14.5039 1.08169C14.3883 0.95976 14.3253 0.79849 14.3283 0.631857C14.3313 0.465223 14.4 0.306236 14.5199 0.18839C14.6398 0.0705438 14.8016 0.00304026 14.9711 0.00010021C15.1407 -0.00283984 15.3048 0.0590123 15.4288 0.172628L18.9193 3.60305Z" fill="white"/>
</svg>
