<svg width="40" height="40" viewBox="0 0 40 40" fill="none" xmlns="http://www.w3.org/2000/svg">
<g clip-path="url(#clip0_1_5654)">
<mask id="mask0_1_5654" style="mask-type:luminance" maskUnits="userSpaceOnUse" x="0" y="0" width="40" height="40">
<path d="M40 0H0V40H40V0Z" fill="white"/>
</mask>
<g mask="url(#mask0_1_5654)">
<path d="M0.619141 11.2045L20.5316 0L40.0002 11.3157V15.2538H36.8939V29.1766H3.66991V15.2542H0.619141V11.2045ZM20.5301 4.22115L7.71736 11.6542V25.6325H33.0654V11.6542L20.5301 4.22115ZM13.7156 16.9794V13.5401H26.972V16.9794H13.7156ZM13.7156 18.6942H26.972V22.1335H13.7156V18.6942ZM20.919 39.9996V35.6177H23.2486C24.9127 35.6177 26.0775 36.117 26.0775 37.8922C26.0775 39.6118 25.0238 40 23.1931 40L20.919 39.9996ZM22.1386 36.5589V39.0548H23.1371C24.0797 39.0548 24.7457 38.8885 24.7457 37.89C24.7457 37.0026 24.0245 36.5589 23.2482 36.5589H22.1386ZM33.0157 39.9996V35.6177H36.2328C37.4528 35.6177 37.9525 36.0063 37.9525 37.0044C37.9525 37.7255 37.5639 38.0585 36.7321 38.1696L38.0076 40H36.6765L35.4009 38.1696H34.2361V40L33.0157 39.9996ZM36.061 36.5596H34.2306V37.2252H36.0054C36.6154 37.2252 36.7821 37.2252 36.7821 36.8922C36.7821 36.6152 36.5602 36.5596 36.061 36.5596ZM14.2656 35.6177V39.9996H15.4304V37.3374L17.76 39.9996H19.1467V35.6177H17.9819V38.3355L15.6522 35.6177H14.2656ZM2.88842 35.6177V39.9996H7.27031V39.0567L4.1088 39.0011V35.6177H2.88842ZM8.49736 39.9996H12.7681V39.0567H9.77293V38.1137H12.2689V37.2263H9.77293V36.5607H12.7681V35.6177H8.49736V39.9996ZM27.4124 35.6177V39.9996L31.6276 39.9444V39.0567H28.6324V38.1137H31.1839V37.2263H28.6324V36.5607H31.6276V35.6177H27.4124ZM11.5415 34.5059L12.6507 30.5677H13.5937L14.703 34.5059H13.8389L13.5933 33.6185H12.5948L12.3493 34.5059H11.5415ZM13.0989 31.4081L12.7663 32.961H13.4874L13.0989 31.4081ZM5.3877 33.064V32.0099C5.3877 31.0114 5.7203 30.457 6.71883 30.457C7.8281 30.457 8.04995 31.1225 8.04995 32.0655V32.8977C8.04995 33.397 7.99439 33.6188 7.8281 33.9518L8.49366 34.1736L8.4381 34.4511C6.16438 34.4511 5.3877 34.3955 5.3877 33.064ZM6.21771 32.0651V33.0081C6.21771 33.7292 6.32882 33.9511 6.71698 33.9511C7.16068 33.9511 7.21624 33.7848 7.21624 33.0636V32.0096C7.21624 31.2329 7.16105 31.1221 6.77253 31.1221C6.27327 31.1218 6.21771 31.344 6.21771 32.0651ZM27.9072 33.4514C27.9072 34.0614 28.2953 34.5611 29.1827 34.5611C29.9039 34.5611 30.5694 34.0618 30.5694 33.4514C30.5694 32.5084 28.7946 32.0647 28.7946 31.4544C28.7946 31.2325 29.0164 31.1218 29.2383 31.1218C29.5709 31.1218 29.7376 31.3436 29.9039 31.6766L30.4587 31.4547C30.4035 30.8999 30.015 30.4562 29.1831 30.4562C28.5176 30.4562 27.9631 30.7888 27.9631 31.4547C27.9631 32.5644 29.7379 32.8414 29.7379 33.5625C29.7379 33.8399 29.5716 33.9511 29.2387 33.9511C28.9057 33.9511 28.6838 33.7292 28.5731 33.3411L27.9072 33.4514ZM21.9234 33.2296V31.954C21.9234 30.8999 22.4227 30.4562 23.2545 30.4562C24.3086 30.4562 24.5857 30.8444 24.5857 31.8429V33.0633C24.5857 34.1174 24.3083 34.5611 23.2545 34.5611C22.2012 34.5607 21.9234 34.1725 21.9234 33.2296ZM22.7534 31.8984V33.1185C22.7534 33.6733 22.8086 33.9507 23.2527 33.9507C23.5853 33.9507 23.752 33.7288 23.752 33.0633V31.8984C23.752 31.4547 23.6968 31.0662 23.2527 31.0662C22.8086 31.0662 22.7534 31.3992 22.7534 31.8984ZM35.285 33.0633C35.285 34.2281 35.618 34.5611 36.7273 34.5611C37.5858 34.5611 37.8365 34.1585 37.8365 33.7288V32.4529H36.6717V33.0629H37.0599V33.5066C37.0599 33.8392 36.9491 34.0059 36.6717 34.0059C36.1169 34.0059 36.0617 33.6173 36.0617 33.0629V32.1755C36.0617 31.5099 36.1169 31.0662 36.6717 31.0662C37.0599 31.0662 37.2817 31.3436 37.3373 31.7318L37.8917 31.5099C37.8365 30.8444 37.3924 30.4558 36.6161 30.4558C35.5069 30.4558 35.285 31.0658 35.285 31.8981V33.0633ZM24.9179 30.567V32.841C24.9179 34.1725 25.146 34.5981 26.3109 34.5981C27.1983 34.5981 27.5246 34.117 27.5246 32.9522V30.567H26.7479V32.841C26.7479 33.7285 26.6923 33.9507 26.2486 33.9507C25.8049 33.9507 25.7494 33.6177 25.7494 32.7859V30.567H24.9179ZM32.2909 30.5677V34.5059H32.9565V31.8433L33.8995 34.5059H34.898V30.5677H34.232V33.0081L33.3446 30.5677H32.2909ZM8.83181 30.567V32.9522C8.83181 34.0614 8.94292 34.5607 10.0522 34.5607C11.3278 34.5607 11.3833 33.9507 11.3833 32.841V30.567H10.6066V32.8966C10.6066 33.6733 10.4959 33.8951 10.1074 33.8951C9.66367 33.8951 9.60811 33.6733 9.60811 32.7859V30.567H8.83181ZM18.8693 30.5677V34.5059H19.646V32.731H20.589V34.5059H21.3653V30.5677H20.589V32.0651H19.646V30.5677H18.8693ZM2.83842 30.5677V34.5059H4.83548V33.8959H3.61509V32.7862H4.72436V32.2314H3.61509V31.1777H4.83548V30.5677H2.83842ZM15.0404 30.5677V34.5059H16.8708V33.8959H15.7059V30.5677H15.0404ZM30.9665 30.5677H31.6876V34.5059H30.9665V30.5677Z" fill="white"/>
</g>
</g>
<defs>
<clipPath id="clip0_1_5654">
<rect width="40" height="40" fill="white"/>
</clipPath>
</defs>
</svg>
