<svg width="131" height="39" viewBox="0 0 131 39" fill="none" xmlns="http://www.w3.org/2000/svg">
<path d="M20.336 18.5002L9.81055 29.6712C9.81154 29.6732 9.81154 29.6761 9.81252 29.6781C10.1358 30.8911 11.243 31.7838 12.5578 31.7838C13.0838 31.7838 13.5771 31.6415 14.0002 31.3923L14.0338 31.3726L25.881 24.5365L20.336 18.5002Z" fill="#EA4335"/>
<path d="M30.9845 16.5979L30.9746 16.591L25.8596 13.6262L20.0972 18.754L25.8804 24.5353L30.9677 21.6002C31.8594 21.1177 32.4654 20.1776 32.4654 19.0941C32.4654 18.0165 31.8683 17.0813 30.9845 16.5979Z" fill="#FBBC04"/>
<path d="M9.81075 8.46893C9.74748 8.70223 9.71387 8.9474 9.71387 9.20048V28.9406C9.71387 29.1937 9.74748 29.4388 9.81174 29.6711L20.6981 18.7858L9.81075 8.46893Z" fill="#4285F4"/>
<path d="M20.4141 19.0703L25.8612 13.6242L14.0279 6.7634C13.5978 6.50538 13.0956 6.35709 12.5588 6.35709C11.244 6.35709 10.1348 7.25176 9.81153 8.46574C9.81153 8.46673 9.81055 8.46772 9.81055 8.46871L20.4141 19.0703Z" fill="#34A853"/>
<path d="M47.9583 9.51365C47.9583 10.2967 47.7266 10.92 47.2621 11.3853C46.7342 11.9385 46.0474 12.2151 45.2027 12.2151C44.3925 12.2151 43.7048 11.9348 43.1394 11.3732C42.5722 10.8125 42.29 10.1164 42.29 9.28658C42.29 8.45587 42.5722 7.76066 43.1394 7.19906C43.7048 6.6384 44.3925 6.35714 45.2027 6.35714C45.6035 6.35714 45.9885 6.43563 46.3529 6.59262C46.7183 6.7496 47.0108 6.95798 47.2304 7.21869L46.737 7.71207C46.366 7.26915 45.8549 7.04675 45.2027 7.04675C44.6121 7.04675 44.1019 7.25419 43.6711 7.66908C43.2404 8.0849 43.0254 8.62314 43.0254 9.28658C43.0254 9.94909 43.2404 10.4883 43.6711 10.9031C44.1019 11.319 44.6121 11.5255 45.2027 11.5255C45.8287 11.5255 46.3501 11.3171 46.7688 10.8994C47.0398 10.6275 47.1958 10.25 47.2378 9.76408H45.2027V9.09035H47.919C47.9452 9.23706 47.9583 9.37816 47.9583 9.51365Z" fill="white"/>
<path d="M47.9583 9.51365C47.9583 10.2967 47.7266 10.92 47.2621 11.3853C46.7342 11.9385 46.0474 12.2151 45.2027 12.2151C44.3925 12.2151 43.7048 11.9348 43.1394 11.3732C42.5722 10.8125 42.29 10.1164 42.29 9.28658C42.29 8.45587 42.5722 7.76066 43.1394 7.19906C43.7048 6.6384 44.3925 6.35714 45.2027 6.35714C45.6035 6.35714 45.9885 6.43563 46.3529 6.59262C46.7183 6.7496 47.0108 6.95798 47.2304 7.21869L46.737 7.71207C46.366 7.26915 45.8549 7.04675 45.2027 7.04675C44.6121 7.04675 44.1019 7.25419 43.6711 7.66908C43.2404 8.0849 43.0254 8.62314 43.0254 9.28658C43.0254 9.94909 43.2404 10.4883 43.6711 10.9031C44.1019 11.319 44.6121 11.5255 45.2027 11.5255C45.8287 11.5255 46.3501 11.3171 46.7688 10.8994C47.0398 10.6275 47.1958 10.25 47.2378 9.76408H45.2027V9.09035H47.919C47.9452 9.23706 47.9583 9.37816 47.9583 9.51365Z" fill="white"/>
<path d="M52.2655 7.17206H49.7126V8.94934H52.0151V9.62307H49.7126V11.4004H52.2655V12.09H48.9922V6.48338H52.2655V7.17206Z" fill="white"/>
<path d="M52.2655 7.17206H49.7126V8.94934H52.0151V9.62307H49.7126V11.4004H52.2655V12.09H48.9922V6.48338H52.2655V7.17206Z" fill="white"/>
<path d="M55.3036 12.0897H54.5832V7.17181H53.0171V6.48314H56.8697V7.17181H55.3036V12.0897Z" fill="white"/>
<path d="M55.3036 12.0897H54.5832V7.17181H53.0171V6.48314H56.8697V7.17181H55.3036V12.0897Z" fill="white"/>
<path d="M59.6572 6.48314H60.3777V12.0897H59.6572V6.48314Z" fill="white"/>
<path d="M63.5727 12.0897H62.8522V7.17181H61.2861V6.48314H65.1388V7.17181H63.5727V12.0897Z" fill="white"/>
<path d="M63.5727 12.0897H62.8522V7.17181H61.2861V6.48314H65.1388V7.17181H63.5727V12.0897Z" fill="white"/>
<path d="M68.8528 10.8957C69.2677 11.3162 69.7751 11.5255 70.376 11.5255C70.9768 11.5255 71.4842 11.3162 71.8991 10.8957C72.314 10.4752 72.5224 9.93881 72.5224 9.28658C72.5224 8.63435 72.314 8.09705 71.8991 7.67749C71.4842 7.257 70.9768 7.04675 70.376 7.04675C69.7751 7.04675 69.2677 7.257 68.8528 7.67749C68.4389 8.09705 68.2305 8.63435 68.2305 9.28658C68.2305 9.93881 68.4389 10.4752 68.8528 10.8957ZM72.4317 11.3648C71.8804 11.932 71.1955 12.2151 70.376 12.2151C69.5565 12.2151 68.8715 11.932 68.3212 11.3648C67.7698 10.7985 67.4951 10.1061 67.4951 9.28658C67.4951 8.46709 67.7698 7.77374 68.3212 7.20747C68.8715 6.64121 69.5565 6.35714 70.376 6.35714C71.1908 6.35714 71.8739 6.64214 72.428 7.21121C72.9812 7.78028 73.2578 8.47176 73.2578 9.28658C73.2578 10.1061 72.9821 10.7985 72.4317 11.3648Z" fill="white"/>
<path d="M68.8528 10.8957C69.2677 11.3162 69.7751 11.5255 70.376 11.5255C70.9768 11.5255 71.4842 11.3162 71.8991 10.8957C72.314 10.4752 72.5224 9.93881 72.5224 9.28658C72.5224 8.63435 72.314 8.09705 71.8991 7.67749C71.4842 7.257 70.9768 7.04675 70.376 7.04675C69.7751 7.04675 69.2677 7.257 68.8528 7.67749C68.4389 8.09705 68.2305 8.63435 68.2305 9.28658C68.2305 9.93881 68.4389 10.4752 68.8528 10.8957ZM72.4317 11.3648C71.8804 11.932 71.1955 12.2151 70.376 12.2151C69.5565 12.2151 68.8715 11.932 68.3212 11.3648C67.7698 10.7985 67.4951 10.1061 67.4951 9.28658C67.4951 8.46709 67.7698 7.77374 68.3212 7.20747C68.8715 6.64121 69.5565 6.35714 70.376 6.35714C71.1908 6.35714 71.8739 6.64214 72.428 7.21121C72.9812 7.78028 73.2578 8.47176 73.2578 9.28658C73.2578 10.1061 72.9821 10.7985 72.4317 11.3648Z" fill="white"/>
<path d="M74.269 12.0897V6.48314H75.1455L77.8703 10.8441H77.9021L77.8703 9.76392V6.48314H78.5917V12.0897H77.8395L74.9886 7.51662H74.9577L74.9886 8.59775V12.0897H74.269Z" fill="white"/>
<path d="M74.269 12.0897V6.48314H75.1455L77.8703 10.8441H77.9021L77.8703 9.76392V6.48314H78.5917V12.0897H77.8395L74.9886 7.51662H74.9577L74.9886 8.59775V12.0897H74.269Z" fill="white"/>
<path d="M103.573 27.9751H105.317V16.2938H103.573V27.9751ZM119.278 20.5015L117.28 25.5661H117.22L115.145 20.5015H113.267L116.378 27.5798L114.605 31.5175H116.423L121.217 20.5015H119.278ZM109.39 26.6482C108.818 26.6482 108.022 26.3632 108.022 25.6558C108.022 24.755 109.014 24.4093 109.871 24.4093C110.637 24.4093 110.998 24.5747 111.464 24.7999C111.328 25.8819 110.397 26.6482 109.39 26.6482ZM109.6 20.2464C108.338 20.2464 107.03 20.8024 106.49 22.0349L108.037 22.6806C108.368 22.0349 108.984 21.8237 109.63 21.8237C110.532 21.8237 111.449 22.3647 111.464 23.3272V23.4468C111.148 23.2665 110.472 22.9964 109.645 22.9964C107.977 22.9964 106.279 23.9131 106.279 25.6259C106.279 27.1892 107.647 28.1965 109.179 28.1965C110.352 28.1965 110.998 27.6704 111.404 27.0537H111.464V27.9555H113.147V23.4767C113.147 21.4032 111.599 20.2464 109.6 20.2464ZM98.8246 21.9237H96.3446V17.9197H98.8246C100.128 17.9197 100.868 18.9989 100.868 19.9212C100.868 20.8267 100.128 21.9237 98.8246 21.9237ZM98.7797 16.2938H94.6019V27.9751H96.3446V23.5496H98.7797C100.712 23.5496 102.612 22.1498 102.612 19.9212C102.612 17.6926 100.712 16.2938 98.7797 16.2938ZM75.9974 26.6501C74.7929 26.6501 73.7847 25.6418 73.7847 24.257C73.7847 22.8572 74.7929 21.8331 75.9974 21.8331C77.1869 21.8331 78.1195 22.8572 78.1195 24.257C78.1195 25.6418 77.1869 26.6501 75.9974 26.6501ZM77.9999 21.1556H77.9391C77.5476 20.6893 76.7954 20.2679 75.847 20.2679C73.8594 20.2679 72.0382 22.0134 72.0382 24.257C72.0382 26.4847 73.8594 28.2162 75.847 28.2162C76.7954 28.2162 77.5476 27.7947 77.9391 27.3126H77.9999V27.8854C77.9999 29.4057 77.1869 30.2186 75.8769 30.2186C74.8079 30.2186 74.1454 29.4505 73.8744 28.803L72.354 29.4356C72.7904 30.4896 73.9501 31.7838 75.8769 31.7838C77.9242 31.7838 79.6557 30.5793 79.6557 27.6443V20.508H77.9999V21.1556ZM80.8602 27.9751H82.6066V16.2928H80.8602V27.9751ZM85.18 24.1215C85.1352 22.5862 86.3696 21.8032 87.2573 21.8032C87.9506 21.8032 88.5375 22.1489 88.7327 22.646L85.18 24.1215ZM90.5997 22.7965C90.269 21.9087 89.2598 20.2679 87.1975 20.2679C85.1501 20.2679 83.4495 21.8779 83.4495 24.242C83.4495 26.4697 85.1352 28.2162 87.3928 28.2162C89.2149 28.2162 90.269 27.1023 90.7053 26.4548L89.3504 25.5512C88.8991 26.2137 88.2814 26.6501 87.3928 26.6501C86.5051 26.6501 85.8725 26.2436 85.466 25.4465L90.7801 23.2478L90.5997 22.7965ZM48.2626 21.4873V23.173H52.2965C52.176 24.1215 51.8601 24.8139 51.3789 25.2951C50.7911 25.8829 49.8726 26.5304 48.2626 26.5304C45.7779 26.5304 43.8362 24.528 43.8362 22.0442C43.8362 19.5596 45.7779 17.558 48.2626 17.558C49.6025 17.558 50.5809 18.0851 51.3032 18.7625L52.4927 17.573C51.4835 16.6096 50.1445 15.8714 48.2626 15.8714C44.8603 15.8714 42 18.642 42 22.0442C42 25.4465 44.8603 28.2162 48.2626 28.2162C50.0987 28.2162 51.4835 27.6134 52.5675 26.4847C53.6823 25.3708 54.028 23.8056 54.028 22.5404C54.028 22.1489 53.9981 21.7882 53.9374 21.4873H48.2626ZM58.6151 26.6501C57.4106 26.6501 56.3715 25.6567 56.3715 24.242C56.3715 22.8114 57.4106 21.8331 58.6151 21.8331C59.8187 21.8331 60.8577 22.8114 60.8577 24.242C60.8577 25.6567 59.8187 26.6501 58.6151 26.6501ZM58.6151 20.2679C56.4164 20.2679 54.6251 21.9387 54.6251 24.242C54.6251 26.5304 56.4164 28.2162 58.6151 28.2162C60.8129 28.2162 62.6042 26.5304 62.6042 24.242C62.6042 21.9387 60.8129 20.2679 58.6151 20.2679ZM67.3175 26.6501C66.113 26.6501 65.0739 25.6567 65.0739 24.242C65.0739 22.8114 66.113 21.8331 67.3175 21.8331C68.5219 21.8331 69.5601 22.8114 69.5601 24.242C69.5601 25.6567 68.5219 26.6501 67.3175 26.6501ZM67.3175 20.2679C65.1197 20.2679 63.3284 21.9387 63.3284 24.242C63.3284 26.5304 65.1197 28.2162 67.3175 28.2162C69.5152 28.2162 71.3065 26.5304 71.3065 24.242C71.3065 21.9387 69.5152 20.2679 67.3175 20.2679Z" fill="white"/>
<rect x="0.675325" y="0.497102" width="129.58" height="37.1467" rx="3.4763" stroke="white" stroke-width="0.993227"/>
</svg>
