<svg width="27" height="20" viewBox="0 0 27 20" fill="none" xmlns="http://www.w3.org/2000/svg">
<path d="M26.0612 3.06126L10.0612 19.0613C9.92184 19.2011 9.75625 19.3121 9.57392 19.3878C9.3916 19.4635 9.19612 19.5024 8.9987 19.5024C8.80127 19.5024 8.60579 19.4635 8.42347 19.3878C8.24114 19.3121 8.07555 19.2011 7.9362 19.0613L0.936196 12.0613C0.796666 11.9217 0.685985 11.7561 0.610472 11.5738C0.53496 11.3915 0.496094 11.1961 0.496094 10.9988C0.496094 10.8014 0.53496 10.606 0.610472 10.4237C0.685985 10.2414 0.796666 10.0758 0.936196 9.93626C1.07573 9.79673 1.24137 9.68605 1.42367 9.61054C1.60598 9.53502 1.80137 9.49616 1.9987 9.49616C2.19602 9.49616 2.39141 9.53502 2.57372 9.61054C2.75602 9.68605 2.92167 9.79673 3.0612 9.93626L8.99995 15.875L23.9387 0.938759C24.2205 0.656966 24.6027 0.498657 25.0012 0.498657C25.3997 0.498657 25.7819 0.656966 26.0637 0.938759C26.3455 1.22055 26.5038 1.60274 26.5038 2.00126C26.5038 2.39977 26.3455 2.78197 26.0637 3.06376L26.0612 3.06126Z" fill="black"/>
</svg>
