<svg width="28" height="24" viewBox="0 0 28 24" fill="none" xmlns="http://www.w3.org/2000/svg">
<path d="M26.8619 4.70746L23.1244 8.44495C22.3694 17.1975 14.9881 24 6.15436 24C4.33936 24 2.84311 23.7125 1.70686 23.145C0.790609 22.6862 0.415609 22.195 0.321859 22.055C0.238265 21.9296 0.184081 21.787 0.163358 21.6377C0.142635 21.4885 0.155908 21.3365 0.202185 21.1931C0.248462 21.0497 0.326546 20.9186 0.430604 20.8096C0.534661 20.7006 0.662001 20.6166 0.803109 20.5637C0.835609 20.5512 3.83311 19.4 5.73686 17.2087C4.68109 16.3407 3.75946 15.3213 3.00186 14.1837C1.45186 11.8825 -0.283141 7.88496 0.251859 1.91121C0.268817 1.72139 0.339661 1.54037 0.45605 1.38946C0.572438 1.23856 0.729523 1.12405 0.908806 1.05943C1.08809 0.994812 1.28211 0.982766 1.46801 1.02471C1.65391 1.06666 1.82395 1.16086 1.95811 1.29621C2.00186 1.33996 6.11811 5.4337 11.1506 6.7612V5.99996C11.1487 5.2017 11.3065 4.41113 11.6148 3.67479C11.9231 2.93846 12.3756 2.27125 12.9456 1.71246C13.4992 1.15961 14.158 0.723258 14.883 0.429136C15.608 0.135013 16.3845 -0.0109166 17.1669 -4.4627e-05C18.2163 0.0103065 19.2452 0.292021 20.1536 0.817712C21.0619 1.3434 21.8188 2.09518 22.3506 2.99996H26.1544C26.3523 2.9998 26.5457 3.05836 26.7103 3.16824C26.8749 3.27811 27.0032 3.43434 27.079 3.61716C27.1547 3.79999 27.1745 4.00118 27.1359 4.19526C27.0972 4.38935 27.0019 4.5676 26.8619 4.70746Z" fill="white"/>
</svg>
